<?xml version="1.0" encoding="UTF-8"?>
<svg xmlns="http://www.w3.org/2000/svg" viewBox="0 0 3391.03 3036.31">
  <defs>
    <style>
      .cls-1 {
        fill: #737474;
        font-size: 122.1px;
      }

      .cls-1, .cls-2, .cls-3, .cls-4 {
        font-family: OpenSans, 'Open Sans';
      }

      .cls-2 {
        fill: #161616;
        font-size: 30.53px;
      }

      .cls-5 {
        stroke-width: 1.87px;
      }

      .cls-5, .cls-6 {
        fill: #fff;
        fill-rule: evenodd;
        stroke: #932c1e;
        stroke-linecap: square;
        stroke-linejoin: bevel;
      }

      .cls-6 {
        stroke-width: 2px;
      }

      .cls-3 {
        fill: #3d3d3d;
        font-size: 61.05px;
      }

      .cls-4 {
        fill: #b4b4b5;
        font-size: 244.2px;
      }
    </style>
  </defs>
  <g id="base">
    <g id="islands">
      <path class="cls-5" d="m1687.86,413.46c-.74,1.64-3.3,5.16-2.21,6.98.4.67,1,1.29,1,2.07,0,.71-.51,1.3-.88,1.91-1.71,2.88-.33,6.74-1.67,9.8-1.14,2.61-4.07,4.06-6.91,4.25s-5.63-.64-8.36-1.47c-9.27-2.81-18.67-5.69-26.82-10.92,3.01-.74,5.33-3.11,7.23-5.55s3.62-5.12,6.12-6.95,6.1-2.61,8.68-.89c1.57,1.05,2.49,2.83,3.89,4.1,2.31,2.1,5.76,2.62,8.8,1.92,1.71-.4,10.72-6.5,11.32-5.2"/>
      <path class="cls-5" d="m1612,380.97c11.49.42,9.34,13.65,3.76,15.5-2.39.8-5.84,7.63-7.9,9.16-2.18,1.62-8.15-.39-9.39,2.11-7.66,15.42-20.05,16.24-30.98,16.03,2.02-3.27,2.56-6.2,2.73-10.11.17-3.91-.85-8.81-4.52-8.86,4.01-7.69,11.25-13.39,19.32-15.2-1.5,1.23-1.51,4.02-.01,5.26,3.35,4.04,9.75,1.78,13.46-1.9,6.09-6.05,4.88-13.2,13.53-11.98"/>
      <path class="cls-5" d="m1622.22,341.31c1.99.09,3.48.75,5.26,1.52-7.18,3.78-10.61,9.81-18.84,9.32-.45-.03-5.39.71-5.39.71l-3.98.9c-4.93-.29-5.93-1.75-8.4,2.24-3.17,5.11.8,8.28-3.83,12.3-.9.78-2.07,1.27-2.99,2.03-2.93,2.42-1.36,7.6,2.15,9.21-4.84,2.19-12.2,4.11-15.78.36-3.89-4.07-1.02-12.14-6.12-14.79-2.22-1.15-4.94-.6-7.48-.58s-5.61-1.07-5.87-3.42c4.46-2.25,2.31-5.36,6.77-7.61-.16-.91,5.13-3.87,4.62-3.08,4.51-2.14,8.99-2.51,13.98-1.73,2.24.35,5.88.92,8.14,1.03,7.87.38,9.11-5.53,17.04-5.19l.45.04,2.33-.04,2.06-.17,1.21-.21.63-.33.22-.21.58-.42.54-.13.85-.08,1.03-.04,1.25-.46,3-.17,1.57-.33,1.57-.54,3.44-.13"/>
      <path class="cls-5" d="m1568.92,312.7l.8.16.23-.04h.27l.45.2.42.12c2.85.82,5.88,1.04,8.79,1.47.02,2.83.03,5.65.05,8.48.04,6.66,2.63,12.56,8.76,15.45-.55.71-1.66.51-2.37-.04s-1.22-1.34-1.98-1.78c-2.43-1.39-5.75,1.49-8.07-.08.73.5-4.85.59-5.08.61-2.54.14-5.54.42-8-.37-2.68-.86-5.19-3.25-7.88-2.46-.79.23-1.5.73-2.29.97-1.6.49-3.3-.1-4.87-.69-.5-.87-.99-2.05-.35-2.82.86-1.04,2.42,0,3.72.09,1.53.11,2.94-1.51,2.7-3.09-1.88.53-3.54-2.45-2.18-3.91.83-.89,2.15-.95,3.29-1.32,1.35-.43,2.55-1.37,3.32-2.61.9-1.44,1.21-3.2,2.05-4.67,1.37-2.41,4.4-2.07,6.38-3.45l.34-.12.53-.12.99.04"/>
    </g>
    <path id="state" class="cls-6" d="m1994.73,2802.39c-31.44,69,46.44,121.57-225.74,137.75-122.78-162.53-128.1-95.55-200.2-133.81-55.84-33.78.27-162.9-77.5-134.92-75.68,16.8-118.6,45.79-187.19,102.56-42.91,10.57-37.35-26.65-106.57,16.48-66.19-82.13-61.44-27.09-170.5-81.14-59.05,4.59-69.99,1.37-114.97,58.1-107.36-4.65-105.16-98.32-207.55-114.97-64.95-25.06-185.3,27.18-241.03-48.37-11.83-80.33-56.26-165.04-151.27-172.86-.96-.08-1.72-.86-1.79-1.83-6.39-93.06-74.26-18.98-147.19-13.42-36.72-9.31-58.3-25.01-90.33-55.25-31.08-27.62-77.59,97.34-71.32-31.25C6.94,1697.83,21.49,1086.44,13.6,455.42c-21.62-175.67,51.88-82.12,237.44-109.18,282.52-7.36,543.74-12.9,824.47-22.48-6.45,6.63-7.49,10.7-18.7,23.16l11.66,10.15,18.29-2.99,3.09,1c32.72,14.56,73.19-17.17,103.07,3.55.02.01.35,1.12.34,1.13,0,0-6.32,12.32,16.71,7.88l.84.88c41.28,36.95,110.43,36.36,167.55,61.05,19.9,26.02,63.91,62.17,106.28,63.21.81.67,41.51,7.39,64.8-29.47.77-1.23.94-2.74.49-4.12-.28-.86-.44-1.82-.44-1.82,0,0-2.5-7.53-4.63-9.99-.23-.26-.17-.67.08-.9,25.48-23.38,17.4,10.13,67.57,27.88,35.11-6.34,45.34-21.08,48.77,35.43l-8.25,5.64c-.11-.26-.44-.26-.6-.04-1.47,2.07-8.44-18.31-8.44-18.31l-10.07,2.27s-42.34-11.26-55.39,10.58l-5.24.48-5.35,3.92-3.99,1.37-4.32.43c-12.91-15.34-93.55-13.06-104.99,18.84-12.43.03-28.11.18-53.44,1.36,8.64,5.84,19.95,14.34,29.68,18.11,2.87-.9,100.04,12.06,128.74-13.29,2.81-2.48,25.77-2.49,25.77-2.49l47.33,6.03,21.81-6.5,39.62-14.38s311.1,14.67,485.33-21.29c139.14.24,101.27,24.11,250.37,10.88,420.48-267.56,510.27-261.27,736.85-323.87,53.65-13.6,158.88-39.36,196.15-51.18,43.45-23.2,20.6,79.53,25.59,113.65-15.35,1258.75,44.45,845.8-115.46,971.12-17.45,23.23,86.95,66.64,35.5,139.84-5.97,8.49-5.96,20,.5,28.13,38.3,48.23-64.54,163.73-92.27,230.3,1.06,46.24-12.94,87.47-20.42,136.65-12.08,6.55-33.64-21.83-37.4,3.83,21.01,15.74-10.03,63.28-26.96,91.59-59,30.61,20.38,27.55,3.67,68.24-42.63.43-3.76,52.72-43.6,65.54-111.91,16.65-174.62,144.95-271.69,181.24-232.36,101.52-50.25-95.16-236.8,26.11-51.45,31.24,25.76,83.22-77.6,61.66-58.47-6.69-20.25,21.05-75.78,58.69-35.52,27.61,32.92,107.46-61.52,95.19-11.86,38.11,61.27,24.19,24.49,95.4-5.75,3.19,31.04,13.63,12.69,28.59-85.82-52.18-45.76,51.32-113.14,35.44-48.78-24.13,49.14-10.99-24.14-89.49-66.99,18.99-16.93-107.7-135.34,45.48-55.09,163.33-116.16,49.69-59.9,167.45-2.71-3.73-4.29-8.27-4.48-12.88,1.72,107.58,67.84,97.52-73.99,122.26"/>
  </g>
  <g id="text">
    <g id="_0" data-name="0">
      <text class="cls-4" transform="translate(1907.14 2443.27)"><tspan x="0" y="0">KILBARGER</tspan></text>
      <text class="cls-4" transform="translate(203.94 2443.27)"><tspan x="0" y="0">MOHAMED</tspan></text>
      <text class="cls-4" transform="translate(267.74 743.42)"><tspan x="0" y="0">BRICKNER</tspan></text>
      <text class="cls-4" transform="translate(1958.98 743.42)"><tspan x="0" y="0">CAMPANA</tspan></text>
    </g>
    <g id="_1" data-name="1">
      <text class="cls-1" transform="translate(1801.22 2832.46)"><tspan x="0" y="0">CREMEANS</tspan></text>
      <text class="cls-1" transform="translate(1819.08 282.68)"><tspan x="0" y="0">SANTIAGO</tspan></text>
      <text class="cls-1" transform="translate(978.82 1132.61)"><tspan x="0" y="0">REINHART</tspan></text>
      <text class="cls-1" transform="translate(1002.84 2832.46)"><tspan x="0" y="0">GROOMS</tspan></text>
      <text class="cls-1" transform="translate(2717.21 1982.54)"><tspan x="0" y="0">HAUGHT</tspan></text>
      <text class="cls-1" transform="translate(1893.73 1132.61)"><tspan x="0" y="0">TROYER</tspan></text>
      <text class="cls-1" transform="translate(1013.7 282.68)"><tspan x="0" y="0">RAMIREZ</tspan></text>
      <text class="cls-1" transform="translate(217.54 1132.61)"><tspan x="0" y="0">BRUNS</tspan></text>
      <text class="cls-1" transform="translate(1925.09 1982.54)"><tspan x="0" y="0">MAYLE</tspan></text>
      <text class="cls-1" transform="translate(2775.01 1132.61)"><tspan x="0" y="0">MAYLE</tspan></text>
      <text class="cls-1" transform="translate(262.83 2832.46)"><tspan x="0" y="0">BYRD</tspan></text>
      <text class="cls-1" transform="translate(263.12 282.68)"><tspan x="0" y="0">RUPP</tspan></text>
      <text class="cls-1" transform="translate(2808.46 282.68)"><tspan x="0" y="0">TOTH</tspan></text>
      <text class="cls-1" transform="translate(262.83 1982.54)"><tspan x="0" y="0">BYRD</tspan></text>
      <text class="cls-1" transform="translate(1181.41 1982.54)"><tspan x="0" y="0">ALI</tspan></text>
    </g>
    <g id="_2" data-name="2">
      <text class="cls-3" transform="translate(455.05 894.95)"><tspan x="0" y="0">SCHROEDER</tspan></text>
      <text class="cls-3" transform="translate(53.39 2169.84)"><tspan x="0" y="0">CAMPBELL</tspan></text>
      <text class="cls-3" transform="translate(3028.13 52.32)"><tspan x="0" y="0">CAMPBELL</tspan></text>
      <text class="cls-3" transform="translate(1368.47 3019.76)"><tspan x="0" y="0">JENKINS</tspan></text>
      <text class="cls-3" transform="translate(2633.05 2169.84)"><tspan x="0" y="0">ARNOLD</tspan></text>
      <text class="cls-3" transform="translate(1784.51 2169.84)"><tspan x="0" y="0">BROOKS</tspan></text>
      <text class="cls-3" transform="translate(26.72 894.95)"><tspan x="0" y="0">WAGNER</tspan></text>
      <text class="cls-3" transform="translate(1797.61 2594.8)"><tspan x="0" y="0">ADKINS</tspan></text>
      <text class="cls-3" transform="translate(1372.66 2594.8)"><tspan x="0" y="0">ADKINS</tspan></text>
      <text class="cls-3" transform="translate(1797.61 3019.76)"><tspan x="0" y="0">ADKINS</tspan></text>
      <text class="cls-3" transform="translate(2222.83 2169.84)"><tspan x="0" y="0">YOUNG</tspan></text>
      <text class="cls-3" transform="translate(1372.91 894.95)"><tspan x="0" y="0">YOUNG</tspan></text>
      <text class="cls-3" transform="translate(522.97 2594.8)"><tspan x="0" y="0">YOUNG</tspan></text>
      <text class="cls-3" transform="translate(947.94 2594.8)"><tspan x="0" y="0">YOUNG</tspan></text>
      <text class="cls-3" transform="translate(1364.98 477.27)"><tspan x="0" y="0">YOUNG </tspan></text>
      <text class="cls-3" transform="translate(522.97 2169.84)"><tspan x="0" y="0">YOUNG</tspan></text>
      <text class="cls-3" transform="translate(1797.87 894.95)"><tspan x="0" y="0">YOUNG</tspan></text>
      <text class="cls-3" transform="translate(522.97 1319.91)"><tspan x="0" y="0">YOUNG</tspan></text>
      <text class="cls-3" transform="translate(947.94 1319.91)"><tspan x="0" y="0">YOUNG</tspan></text>
      <text class="cls-3" transform="translate(107.54 477.27)"><tspan x="0" y="0">SHORT</tspan></text>
      <text class="cls-3" transform="translate(2232.18 1319.91)"><tspan x="0" y="0">YODER</tspan></text>
      <text class="cls-3" transform="translate(1388.08 1319.91)"><tspan x="0" y="0">WHITE</tspan></text>
      <text class="cls-3" transform="translate(2238 894.95)"><tspan x="0" y="0">WHITE</tspan></text>
      <text class="cls-3" transform="translate(3080.01 1319.91)"><tspan x="0" y="0">WHITE </tspan></text>
      <text class="cls-3" transform="translate(108.86 1319.91)"><tspan x="0" y="0">MEYER</tspan></text>
      <text class="cls-3" transform="translate(963.11 477.27)"><tspan x="0" y="0">WHITE</tspan></text>
      <text class="cls-3" transform="translate(1813.04 1744.86)"><tspan x="0" y="0">WHITE</tspan></text>
      <text class="cls-3" transform="translate(1388.08 1744.86)"><tspan x="0" y="0">WHITE</tspan></text>
      <text class="cls-3" transform="translate(538.15 1744.86)"><tspan x="0" y="0">WHITE</tspan></text>
      <text class="cls-3" transform="translate(113.19 2594.8)"><tspan x="0" y="0">WHITE</tspan></text>
      <text class="cls-3" transform="translate(2655.04 477.27)"><tspan x="0" y="0">WHITE </tspan></text>
      <text class="cls-3" transform="translate(2655.04 894.95)"><tspan x="0" y="0">WHITE </tspan></text>
      <text class="cls-3" transform="translate(3080.01 477.27)"><tspan x="0" y="0">WHITE </tspan></text>
      <text class="cls-3" transform="translate(3087.93 894.95)"><tspan x="0" y="0">WHITE</tspan></text>
      <text class="cls-3" transform="translate(1813.04 1319.91)"><tspan x="0" y="0">WHITE</tspan></text>
      <text class="cls-3" transform="translate(959.02 894.95)"><tspan x="0" y="0">MYERS</tspan></text>
      <text class="cls-3" transform="translate(534.05 477.27)"><tspan x="0" y="0">MYERS</tspan></text>
      <text class="cls-3" transform="translate(109.09 1744.86)"><tspan x="0" y="0">MYERS</tspan></text>
      <text class="cls-3" transform="translate(3083.84 1744.86)"><tspan x="0" y="0">MYERS</tspan></text>
      <text class="cls-3" transform="translate(2658.87 1319.91)"><tspan x="0" y="0">MYERS</tspan></text>
      <text class="cls-3" transform="translate(3088.41 2169.84)"><tspan x="0" y="0">POTTS</tspan></text>
      <text class="cls-3" transform="translate(2662.73 1744.86)"><tspan x="0" y="0">LUCAS</tspan></text>
      <text class="cls-3" transform="translate(1805.87 477.27)"><tspan x="0" y="0">LOPEZ </tspan></text>
      <text class="cls-3" transform="translate(2230.07 477.27)"><tspan x="0" y="0">WHITE </tspan></text>
      <text class="cls-3" transform="translate(1418.52 2169.84)"><tspan x="0" y="0">HILL</tspan></text>
      <text class="cls-3" transform="translate(993.55 1744.86)"><tspan x="0" y="0">HILL</tspan></text>
      <text class="cls-3" transform="translate(2268.43 2594.8)"><tspan x="0" y="0">HILL</tspan></text>
      <text class="cls-3" transform="translate(2268.43 1744.86)"><tspan x="0" y="0">HILL</tspan></text>
      <text class="cls-3" transform="translate(995.62 2169.84)"><tspan x="0" y="0">COX</tspan></text>
    </g>
    <g id="_3" data-name="3">
      <text class="cls-2" transform="translate(1092.22 2699.39)"><tspan x="0" y="0">WILLIAMS</tspan></text>
      <text class="cls-2" transform="translate(891.95 999.54)"><tspan x="0" y="0">WILSON</tspan></text>
      <text class="cls-2" transform="translate(1525.43 2911.87)"><tspan x="0" y="0">WILSON </tspan></text>
      <text class="cls-2" transform="translate(1744.07 2699.39)"><tspan x="0" y="0">TAYLOR</tspan></text>
      <text class="cls-2" transform="translate(43.25 362.1)"><tspan x="0" y="0">BROWN</tspan></text>
      <text class="cls-2" transform="translate(255.74 999.54)"><tspan x="0" y="0">BROWN</tspan></text>
      <text class="cls-2" transform="translate(1530.63 2486.91)"><tspan x="0" y="0">BROWN</tspan></text>
      <text class="cls-2" transform="translate(43.25 1424.5)"><tspan x="0" y="0">BROWN</tspan></text>
      <text class="cls-2" transform="translate(2805.52 1849.47)"><tspan x="0" y="0">BROWN</tspan></text>
      <text class="cls-2" transform="translate(255.74 787.05)"><tspan x="0" y="0">BROWN</tspan></text>
      <text class="cls-2" transform="translate(3018 1849.47)"><tspan x="0" y="0">BROWN</tspan></text>
      <text class="cls-2" transform="translate(51.48 999.54)"><tspan x="0" y="0">MYERS</tspan></text>
      <text class="cls-2" transform="translate(1116.4 1636.99)"><tspan x="0" y="0">SMITH</tspan></text>
      <text class="cls-2" transform="translate(3028.73 362.1)"><tspan x="0" y="0">SMITH</tspan></text>
      <text class="cls-2" transform="translate(2816.25 362.1)"><tspan x="0" y="0">SMITH</tspan></text>
      <text class="cls-2" transform="translate(2603.76 362.1)"><tspan x="0" y="0">SMITH</tspan></text>
      <text class="cls-2" transform="translate(3241.2 362.1)"><tspan x="0" y="0">SMITH</tspan></text>
      <text class="cls-2" transform="translate(3241.21 149.62)"><tspan x="0" y="0">SMITH</tspan></text>
      <text class="cls-2" transform="translate(2599.79 999.54)"><tspan x="0" y="0">SMITH </tspan></text>
      <text class="cls-2" transform="translate(2603.76 787.05)"><tspan x="0" y="0">SMITH</tspan></text>
      <text class="cls-2" transform="translate(2603.76 574.57)"><tspan x="0" y="0">SMITH</tspan></text>
      <text class="cls-2" transform="translate(2391.28 787.05)"><tspan x="0" y="0">SMITH</tspan></text>
      <text class="cls-2" transform="translate(2178.8 787.05)"><tspan x="0" y="0">SMITH</tspan></text>
      <text class="cls-2" transform="translate(2816.25 1636.99)"><tspan x="0" y="0">SMITH</tspan></text>
      <text class="cls-2" transform="translate(1966.33 574.57)"><tspan x="0" y="0">SMITH</tspan></text>
      <text class="cls-2" transform="translate(2603.76 1424.5)"><tspan x="0" y="0">SMITH</tspan></text>
      <text class="cls-2" transform="translate(2599.79 1212.02)"><tspan x="0" y="0">SMITH </tspan></text>
      <text class="cls-2" transform="translate(2391.28 1212.02)"><tspan x="0" y="0">SMITH</tspan></text>
      <text class="cls-2" transform="translate(2174.84 2274.43)"><tspan x="0" y="0">SMITH </tspan></text>
      <text class="cls-2" transform="translate(2174.84 999.54)"><tspan x="0" y="0">SMITH </tspan></text>
      <text class="cls-2" transform="translate(1966.33 999.54)"><tspan x="0" y="0">SMITH</tspan></text>
      <text class="cls-2" transform="translate(2391.28 1424.5)"><tspan x="0" y="0">SMITH</tspan></text>
      <text class="cls-2" transform="translate(2178.8 1424.5)"><tspan x="0" y="0">SMITH</tspan></text>
      <text class="cls-2" transform="translate(2174.84 1212.02)"><tspan x="0" y="0">SMITH </tspan></text>
      <text class="cls-2" transform="translate(1966.33 1424.5)"><tspan x="0" y="0">SMITH</tspan></text>
      <text class="cls-2" transform="translate(1966.33 1212.02)"><tspan x="0" y="0">SMITH</tspan></text>
      <text class="cls-2" transform="translate(2391.28 2274.43)"><tspan x="0" y="0">SMITH</tspan></text>
      <text class="cls-2" transform="translate(2178.8 574.57)"><tspan x="0" y="0">SMITH</tspan></text>
      <text class="cls-2" transform="translate(1753.85 999.54)"><tspan x="0" y="0">SMITH</tspan></text>
      <text class="cls-2" transform="translate(2599.79 2061.95)"><tspan x="0" y="0">SMITH </tspan></text>
      <text class="cls-2" transform="translate(1328.88 1212.02)"><tspan x="0" y="0">SMITH</tspan></text>
      <text class="cls-2" transform="translate(1537.39 999.54)"><tspan x="0" y="0">SMITH </tspan></text>
      <text class="cls-2" transform="translate(1328.88 999.54)"><tspan x="0" y="0">SMITH</tspan></text>
      <text class="cls-2" transform="translate(2603.76 2274.43)"><tspan x="0" y="0">SMITH</tspan></text>
      <text class="cls-2" transform="translate(2816.25 2061.95)"><tspan x="0" y="0">SMITH</tspan></text>
      <text class="cls-2" transform="translate(3028.73 2061.95)"><tspan x="0" y="0">SMITH</tspan></text>
      <text class="cls-2" transform="translate(3028.73 1636.99)"><tspan x="0" y="0">SMITH</tspan></text>
      <text class="cls-2" transform="translate(1541.36 574.57)"><tspan x="0" y="0">SMITH</tspan></text>
      <text class="cls-2" transform="translate(1328.88 574.57)"><tspan x="0" y="0">SMITH</tspan></text>
      <text class="cls-2" transform="translate(1753.85 574.57)"><tspan x="0" y="0">SMITH</tspan></text>
      <text class="cls-2" transform="translate(1541.36 362.1)"><tspan x="0" y="0">SMITH</tspan></text>
      <text class="cls-2" transform="translate(3028.73 149.62)"><tspan x="0" y="0">SMITH</tspan></text>
      <text class="cls-2" transform="translate(1116.4 574.57)"><tspan x="0" y="0">SMITH</tspan></text>
      <text class="cls-2" transform="translate(1116.4 362.1)"><tspan x="0" y="0">SMITH</tspan></text>
      <text class="cls-2" transform="translate(53.99 787.05)"><tspan x="0" y="0">SMITH</tspan></text>
      <text class="cls-2" transform="translate(266.47 362.1)"><tspan x="0" y="0">SMITH</tspan></text>
      <text class="cls-2" transform="translate(53.99 574.57)"><tspan x="0" y="0">SMITH</tspan></text>
      <text class="cls-2" transform="translate(899.95 362.1)"><tspan x="0" y="0">SMITH </tspan></text>
      <text class="cls-2" transform="translate(691.43 362.1)"><tspan x="0" y="0">SMITH</tspan></text>
      <text class="cls-2" transform="translate(266.47 574.57)"><tspan x="0" y="0">SMITH</tspan></text>
      <text class="cls-2" transform="translate(3241.2 1636.99)"><tspan x="0" y="0">SMITH</tspan></text>
      <text class="cls-2" transform="translate(691.43 574.57)"><tspan x="0" y="0">SMITH</tspan></text>
      <text class="cls-2" transform="translate(2816.25 2274.43)"><tspan x="0" y="0">SMITH</tspan></text>
      <text class="cls-2" transform="translate(903.91 574.57)"><tspan x="0" y="0">SMITH</tspan></text>
      <text class="cls-2" transform="translate(903.91 787.05)"><tspan x="0" y="0">SMITH</tspan></text>
      <text class="cls-2" transform="translate(53.99 1212.02)"><tspan x="0" y="0">SMITH</tspan></text>
      <text class="cls-2" transform="translate(266.47 1212.02)"><tspan x="0" y="0">SMITH</tspan></text>
      <text class="cls-2" transform="translate(478.95 999.54)"><tspan x="0" y="0">SMITH</tspan></text>
      <text class="cls-2" transform="translate(691.43 787.05)"><tspan x="0" y="0">SMITH</tspan></text>
      <text class="cls-2" transform="translate(691.43 999.54)"><tspan x="0" y="0">SMITH</tspan></text>
      <text class="cls-2" transform="translate(266.47 1424.5)"><tspan x="0" y="0">SMITH</tspan></text>
      <text class="cls-2" transform="translate(478.95 1212.02)"><tspan x="0" y="0">SMITH</tspan></text>
      <text class="cls-2" transform="translate(478.95 1424.5)"><tspan x="0" y="0">SMITH</tspan></text>
      <text class="cls-2" transform="translate(691.43 1424.5)"><tspan x="0" y="0">SMITH</tspan></text>
      <text class="cls-2" transform="translate(903.91 1424.5)"><tspan x="0" y="0">SMITH</tspan></text>
      <text class="cls-2" transform="translate(478.95 1636.99)"><tspan x="0" y="0">SMITH</tspan></text>
      <text class="cls-2" transform="translate(903.91 1212.02)"><tspan x="0" y="0">SMITH</tspan></text>
      <text class="cls-2" transform="translate(1116.4 1212.02)"><tspan x="0" y="0">SMITH</tspan></text>
      <text class="cls-2" transform="translate(1116.4 1424.5)"><tspan x="0" y="0">SMITH</tspan></text>
      <text class="cls-2" transform="translate(1328.88 1424.5)"><tspan x="0" y="0">SMITH</tspan></text>
      <text class="cls-2" transform="translate(1537.39 1424.5)"><tspan x="0" y="0">SMITH </tspan></text>
      <text class="cls-2" transform="translate(478.95 362.1)"><tspan x="0" y="0">SMITH</tspan></text>
      <text class="cls-2" transform="translate(1328.88 1849.47)"><tspan x="0" y="0">SMITH</tspan></text>
      <text class="cls-2" transform="translate(1541.36 1636.99)"><tspan x="0" y="0">SMITH</tspan></text>
      <text class="cls-2" transform="translate(1541.36 1849.47)"><tspan x="0" y="0">SMITH</tspan></text>
      <text class="cls-2" transform="translate(53.99 1636.99)"><tspan x="0" y="0">SMITH</tspan></text>
      <text class="cls-2" transform="translate(53.99 1849.47)"><tspan x="0" y="0">SMITH</tspan></text>
      <text class="cls-2" transform="translate(266.47 1636.99)"><tspan x="0" y="0">SMITH</tspan></text>
      <text class="cls-2" transform="translate(53.99 2061.95)"><tspan x="0" y="0">SMITH</tspan></text>
      <text class="cls-2" transform="translate(53.99 2274.43)"><tspan x="0" y="0">SMITH</tspan></text>
      <text class="cls-2" transform="translate(266.47 2486.91)"><tspan x="0" y="0">SMITH</tspan></text>
      <text class="cls-2" transform="translate(478.95 1849.47)"><tspan x="0" y="0">SMITH</tspan></text>
      <text class="cls-2" transform="translate(691.43 1849.47)"><tspan x="0" y="0">SMITH</tspan></text>
      <text class="cls-2" transform="translate(478.95 2061.95)"><tspan x="0" y="0">SMITH</tspan></text>
      <text class="cls-2" transform="translate(691.43 2061.95)"><tspan x="0" y="0">SMITH</tspan></text>
      <text class="cls-2" transform="translate(903.91 1849.47)"><tspan x="0" y="0">SMITH</tspan></text>
      <text class="cls-2" transform="translate(1116.4 1849.47)"><tspan x="0" y="0">SMITH</tspan></text>
      <text class="cls-2" transform="translate(903.91 2061.95)"><tspan x="0" y="0">SMITH</tspan></text>
      <text class="cls-2" transform="translate(899.95 2274.43)"><tspan x="0" y="0">SMITH </tspan></text>
      <text class="cls-2" transform="translate(1116.4 2274.43)"><tspan x="0" y="0">SMITH</tspan></text>
      <text class="cls-2" transform="translate(266.47 2061.95)"><tspan x="0" y="0">SMITH</tspan></text>
      <text class="cls-2" transform="translate(266.47 2274.43)"><tspan x="0" y="0">SMITH</tspan></text>
      <text class="cls-2" transform="translate(474.99 2274.43)"><tspan x="0" y="0">SMITH </tspan></text>
      <text class="cls-2" transform="translate(687.47 2274.43)"><tspan x="0" y="0">SMITH </tspan></text>
      <text class="cls-2" transform="translate(478.95 2486.91)"><tspan x="0" y="0">SMITH</tspan></text>
      <text class="cls-2" transform="translate(687.47 2486.91)"><tspan x="0" y="0">SMITH </tspan></text>
      <text class="cls-2" transform="translate(1541.36 2699.39)"><tspan x="0" y="0">SMITH</tspan></text>
      <text class="cls-2" transform="translate(1328.88 2699.39)"><tspan x="0" y="0">SMITH</tspan></text>
      <text class="cls-2" transform="translate(1966.33 2486.91)"><tspan x="0" y="0">SMITH</tspan></text>
      <text class="cls-2" transform="translate(1966.33 2699.39)"><tspan x="0" y="0">SMITH</tspan></text>
      <text class="cls-2" transform="translate(2178.8 2486.91)"><tspan x="0" y="0">SMITH</tspan></text>
      <text class="cls-2" transform="translate(478.95 2699.39)"><tspan x="0" y="0">SMITH</tspan></text>
      <text class="cls-2" transform="translate(1541.36 2061.95)"><tspan x="0" y="0">SMITH</tspan></text>
      <text class="cls-2" transform="translate(1749.88 2061.95)"><tspan x="0" y="0">SMITH </tspan></text>
      <text class="cls-2" transform="translate(691.43 2699.39)"><tspan x="0" y="0">SMITH</tspan></text>
      <text class="cls-2" transform="translate(1749.88 2274.43)"><tspan x="0" y="0">SMITH </tspan></text>
      <text class="cls-2" transform="translate(1753.85 2486.91)"><tspan x="0" y="0">SMITH</tspan></text>
      <text class="cls-2" transform="translate(1753.85 2911.87)"><tspan x="0" y="0">SMITH</tspan></text>
      <text class="cls-2" transform="translate(2391.28 2486.91)"><tspan x="0" y="0">SMITH</tspan></text>
      <text class="cls-2" transform="translate(1966.33 2911.87)"><tspan x="0" y="0">SMITH</tspan></text>
      <text class="cls-2" transform="translate(1116.4 2061.95)"><tspan x="0" y="0">SMITH</tspan></text>
      <text class="cls-2" transform="translate(1328.88 2061.95)"><tspan x="0" y="0">SMITH</tspan></text>
      <text class="cls-2" transform="translate(1328.88 2274.43)"><tspan x="0" y="0">SMITH</tspan></text>
      <text class="cls-2" transform="translate(1541.36 2274.43)"><tspan x="0" y="0">SMITH</tspan></text>
      <text class="cls-2" transform="translate(1328.88 2486.91)"><tspan x="0" y="0">SMITH</tspan></text>
      <text class="cls-2" transform="translate(3028.73 574.57)"><tspan x="0" y="0">SMITH</tspan></text>
      <text class="cls-2" transform="translate(2816.25 574.57)"><tspan x="0" y="0">SMITH</tspan></text>
      <text class="cls-2" transform="translate(3241.2 574.57)"><tspan x="0" y="0">SMITH</tspan></text>
      <text class="cls-2" transform="translate(2816.25 787.05)"><tspan x="0" y="0">SMITH</tspan></text>
      <text class="cls-2" transform="translate(3028.73 787.05)"><tspan x="0" y="0">SMITH</tspan></text>
      <text class="cls-2" transform="translate(2812.28 999.54)"><tspan x="0" y="0">SMITH </tspan></text>
      <text class="cls-2" transform="translate(2812.28 1212.02)"><tspan x="0" y="0">SMITH </tspan></text>
      <text class="cls-2" transform="translate(3024.76 999.54)"><tspan x="0" y="0">SMITH </tspan></text>
      <text class="cls-2" transform="translate(3241.2 999.54)"><tspan x="0" y="0">SMITH</tspan></text>
      <text class="cls-2" transform="translate(3024.76 1212.02)"><tspan x="0" y="0">SMITH </tspan></text>
      <text class="cls-2" transform="translate(2816.25 1424.5)"><tspan x="0" y="0">SMITH</tspan></text>
      <text class="cls-2" transform="translate(3028.73 1424.5)"><tspan x="0" y="0">SMITH</tspan></text>
      <text class="cls-2" transform="translate(3237.24 1212.02)"><tspan x="0" y="0">SMITH </tspan></text>
      <text class="cls-2" transform="translate(3241.2 1424.5)"><tspan x="0" y="0">SMITH</tspan></text>
      <text class="cls-2" transform="translate(1753.85 1212.02)"><tspan x="0" y="0">SMITH</tspan></text>
      <text class="cls-2" transform="translate(1749.88 1424.5)"><tspan x="0" y="0">SMITH </tspan></text>
      <text class="cls-2" transform="translate(1753.85 1636.99)"><tspan x="0" y="0">SMITH</tspan></text>
      <text class="cls-2" transform="translate(1966.33 1636.99)"><tspan x="0" y="0">SMITH</tspan></text>
      <text class="cls-2" transform="translate(2178.8 1636.99)"><tspan x="0" y="0">SMITH</tspan></text>
      <text class="cls-2" transform="translate(1749.88 1849.47)"><tspan x="0" y="0">SMITH </tspan></text>
      <text class="cls-2" transform="translate(1966.33 1849.47)"><tspan x="0" y="0">SMITH</tspan></text>
      <text class="cls-2" transform="translate(1966.33 2061.95)"><tspan x="0" y="0">SMITH</tspan></text>
      <text class="cls-2" transform="translate(1962.36 2274.43)"><tspan x="0" y="0">SMITH </tspan></text>
      <text class="cls-2" transform="translate(2178.8 1849.47)"><tspan x="0" y="0">SMITH</tspan></text>
      <text class="cls-2" transform="translate(2178.8 2061.95)"><tspan x="0" y="0">SMITH</tspan></text>
      <text class="cls-2" transform="translate(2371.68 2061.95)"><tspan x="0" y="0">SMITH </tspan></text>
      <text class="cls-2" transform="translate(2603.76 1849.47)"><tspan x="0" y="0">SMITH</tspan></text>
      <text class="cls-2" transform="translate(2391.28 1636.99)"><tspan x="0" y="0">SMITH</tspan></text>
      <text class="cls-2" transform="translate(2603.76 1636.99)"><tspan x="0" y="0">SMITH</tspan></text>
      <text class="cls-2" transform="translate(1119.37 2486.91)"><tspan x="0" y="0">JONES</tspan></text>
      <text class="cls-2" transform="translate(902.92 2486.91)"><tspan x="0" y="0">JONES </tspan></text>
      <text class="cls-2" transform="translate(902.92 2699.39)"><tspan x="0" y="0">JONES </tspan></text>
      <text class="cls-2" transform="translate(468.22 787.05)"><tspan x="0" y="0">BROWN</tspan></text>
      <text class="cls-2" transform="translate(1966.33 787.05)"><tspan x="0" y="0">SMITH</tspan></text>
      <text class="cls-2" transform="translate(2391.28 999.54)"><tspan x="0" y="0">SMITH</tspan></text>
      <text class="cls-2" transform="translate(2391.28 574.57)"><tspan x="0" y="0">SMITH</tspan></text>
      <text class="cls-2" transform="translate(1541.36 1212.02)"><tspan x="0" y="0">SMITH</tspan></text>
      <text class="cls-2" transform="translate(1753.84 787.05)"><tspan x="0" y="0">SMITH</tspan></text>
      <text class="cls-2" transform="translate(1541.36 787.05)"><tspan x="0" y="0">SMITH</tspan></text>
      <text class="cls-2" transform="translate(1328.88 787.05)"><tspan x="0" y="0">SMITH</tspan></text>
      <text class="cls-2" transform="translate(1116.4 787.05)"><tspan x="0" y="0">SMITH</tspan></text>
      <text class="cls-2" transform="translate(478.95 574.57)"><tspan x="0" y="0">SMITH</tspan></text>
      <text class="cls-2" transform="translate(903.91 1636.99)"><tspan x="0" y="0">SMITH</tspan></text>
      <text class="cls-2" transform="translate(1116.4 999.54)"><tspan x="0" y="0">SMITH</tspan></text>
      <text class="cls-2" transform="translate(3237.24 787.05)"><tspan x="0" y="0">SMITH </tspan></text>
      <text class="cls-2" transform="translate(2391.28 1849.47)"><tspan x="0" y="0">SMITH</tspan></text>
      <text class="cls-2" transform="translate(691.43 1636.99)"><tspan x="0" y="0">SMITH</tspan></text>
      <text class="cls-2" transform="translate(1328.88 1636.99)"><tspan x="0" y="0">SMITH</tspan></text>
      <text class="cls-2" transform="translate(691.43 1212.02)"><tspan x="0" y="0">SMITH</tspan></text>
      <text class="cls-2" transform="translate(266.47 1849.47)"><tspan x="0" y="0">SMITH</tspan></text>
    </g>
  </g>
</svg>